<svg width="31" height="31" viewBox="0 0 31 31" fill="none" xmlns="http://www.w3.org/2000/svg">
<path d="M22.7656 10.1719H21.7969V12.1094H22.7656C23.5364 12.1094 24.2756 12.4156 24.8207 12.9606C25.3657 13.5056 25.6719 14.2448 25.6719 15.0156V15.9844C25.6719 16.7552 25.3657 17.4944 24.8207 18.0394C24.2756 18.5844 23.5364 18.8906 22.7656 18.8906H22.2812V20.8281H22.7656C24.0503 20.8281 25.2823 20.3178 26.1907 19.4094C27.0991 18.501 27.6094 17.269 27.6094 15.9844V15.0156C27.6094 13.731 27.0991 12.499 26.1907 11.5906C25.2823 10.6822 24.0503 10.1719 22.7656 10.1719Z" fill="#B39A7C"/>
<path d="M5.32812 7.75V17.4375C5.32813 20.5816 6.3479 23.6409 8.23438 26.1562H19.8594C21.7459 23.6409 22.7656 20.5816 22.7656 17.4375V7.75H5.32812Z" fill="#B39A7C"/>
<path d="M19.2541 24.4789L18.4365 23.9586C19.6813 22.0114 20.343 19.7486 20.3435 17.4375V15.0156H21.3123V17.4375C21.3115 19.9328 20.5974 22.3759 19.2541 24.4789Z" fill="#F2F2F2"/>
<path d="M20.3438 9.6875H21.3125V13.0781H20.3438V9.6875Z" fill="#F2F2F2"/>
<path d="M21.7969 7.75H14.0469V11.5732C14.0521 11.809 13.9742 12.0391 13.8269 12.2233C13.6795 12.4075 13.4721 12.534 13.2409 12.5807C13.1018 12.6044 12.9593 12.5974 12.8232 12.5603C12.6871 12.5232 12.5608 12.4568 12.453 12.3658C12.3453 12.2748 12.2587 12.1613 12.1993 12.0334C12.14 11.9054 12.1093 11.7661 12.1094 11.625V8.77058C12.1146 8.53476 12.0367 8.30461 11.8894 8.12043C11.742 7.93624 11.5346 7.80974 11.3034 7.76308C11.1643 7.73938 11.0218 7.74633 10.8857 7.78345C10.7496 7.82057 10.6233 7.88695 10.5155 7.97796C10.4078 8.06898 10.3212 8.18242 10.2618 8.31038C10.2025 8.43833 10.1718 8.5777 10.1719 8.71875V14.4794C10.1771 14.7152 10.0992 14.9454 9.95188 15.1296C9.80453 15.3138 9.59709 15.4403 9.36588 15.4869C9.22683 15.5106 9.08429 15.5037 8.94821 15.4665C8.81213 15.4294 8.68579 15.363 8.57804 15.272C8.47028 15.181 8.38369 15.0676 8.32434 14.9396C8.26498 14.8117 8.23427 14.6723 8.23438 14.5313V7.75H6.29688C6.29688 6.97921 6.60307 6.24 7.1481 5.69497C7.69312 5.14994 8.43234 4.84375 9.20312 4.84375H18.8906C19.6614 4.84375 20.4006 5.14994 20.9457 5.69497C21.4907 6.24 21.7969 6.97921 21.7969 7.75Z" fill="#FAC025"/>
<path d="M10.1719 4.84375H11.1406V5.8125H10.1719V4.84375Z" fill="#42210B"/>
<path d="M11.625 5.8125H12.5938V6.78125H11.625V5.8125Z" fill="#42210B"/>
<path d="M13.0781 4.84375H14.0469V5.8125H13.0781V4.84375Z" fill="#42210B"/>
<path d="M14.5312 5.8125H15.5V6.78125H14.5312V5.8125Z" fill="#42210B"/>
<path d="M15.9844 4.84375H16.9531V5.8125H15.9844V4.84375Z" fill="#42210B"/>
<path d="M17.4375 5.8125H18.4062V6.78125H17.4375V5.8125Z" fill="#42210B"/>
</svg>
