<svg width="29" height="29" viewBox="0 0 29 29" fill="none" xmlns="http://www.w3.org/2000/svg">
<path d="M20.1066 22.407C19.8751 22.407 19.6835 22.2237 19.6751 21.9905C19.6665 21.752 19.8528 21.5518 20.0913 21.5431C25.8476 21.3354 27.3187 17.6637 27.6392 16.4754C27.6548 16.4176 27.6687 16.3665 27.6811 16.3228L27.7108 16.1759C28.0061 14.798 27.1687 13.4555 25.8054 13.1148C25.2128 12.9666 24.2322 13.2075 23.711 13.5692C23.3268 13.8358 22.846 14.3543 22.7377 15.3101C22.7109 15.5472 22.4969 15.717 22.2598 15.6907C22.0227 15.6639 21.8522 15.45 21.8791 15.2128C22.0238 13.9352 22.6872 13.2277 23.2184 12.8592C23.9491 12.3521 25.1753 12.0667 26.0149 12.2764C26.8905 12.4953 27.6351 13.0378 28.1116 13.804C28.587 14.5684 28.7451 15.4733 28.5567 16.3521L28.5246 16.5111C28.5222 16.5229 28.5193 16.5346 28.516 16.5461C28.5034 16.5891 28.4896 16.6408 28.4735 16.7004C28.3154 17.2863 27.9453 18.6584 26.8088 19.8969C25.4044 21.4275 22.8257 22.309 20.1223 22.4066C20.1171 22.4069 20.1118 22.407 20.1066 22.407Z" fill="#B39A7C"/>
<path d="M25.7237 25.9755C25.7237 26.0982 25.6931 26.2192 25.6332 26.3379C24.8832 27.8374 19.5336 29 13.0452 29C6.04296 29 0.366211 27.6462 0.366211 25.9755C0.366211 25.392 1.05983 24.8464 2.26209 24.3838C4.49786 23.5243 8.49125 22.9517 13.0452 22.9517C20.0475 22.9517 25.7237 24.3055 25.7237 25.9755Z" fill="#A78966"/>
<path d="M25.7228 25.9756C25.7228 26.0983 25.6923 26.2193 25.6324 26.3379C23.3971 27.198 19.4038 27.7712 14.8493 27.7712C7.84703 27.7712 2.1709 26.4168 2.1709 24.7468C2.1709 24.6241 2.20143 24.5031 2.26135 24.3838C4.49713 23.5243 8.49052 22.9517 13.0444 22.9517C20.0467 22.9518 25.7228 24.3055 25.7228 25.9756Z" fill="#B39A7C"/>
<path d="M23.0456 11.3091V12.774C23.0456 15.2293 22.5934 17.5832 21.7805 19.6081C20.9671 21.6324 19.7931 23.3284 18.3494 24.4679C17.0947 25.4582 15.6989 25.9755 14.2823 25.9755H11.5954C10.8868 25.9755 10.184 25.8459 9.50135 25.593C8.8181 25.3401 8.15563 24.9633 7.52827 24.4679C4.64091 22.189 2.83203 17.6846 2.83203 12.7741V11.3091H23.0456V11.3091Z" fill="#C0AB91"/>
<path d="M23.0459 11.3091V12.774C23.0459 15.2293 22.5937 17.5832 21.7808 19.6081C20.9674 21.6324 19.7934 23.3284 18.3497 24.4679C17.095 25.4582 15.6992 25.9755 14.2826 25.9755H13.5544C12.8458 25.9755 12.143 25.8459 11.4603 25.593C10.7771 25.3401 10.1146 24.9633 9.48726 24.4679C6.59995 22.1889 4.79102 17.6845 4.79102 12.774V11.3091H23.0459Z" fill="#D9CCBC"/>
<path d="M23.0455 11.3091C23.0455 11.7037 22.7598 12.0787 22.2436 12.4197C22.099 12.5153 21.9366 12.6075 21.7574 12.6974C20.6214 13.2666 18.809 13.7136 16.6269 13.9544C15.7869 14.0471 14.8929 14.1082 13.9619 14.1347C13.6255 14.1439 13.2844 14.1491 12.9388 14.1491C12.6825 14.1491 12.4284 14.1468 12.1767 14.141C11.1512 14.1197 10.1685 14.0558 9.25134 13.9538C7.21953 13.7303 5.50853 13.327 4.36558 12.8132C4.08617 12.6881 3.84137 12.5562 3.63338 12.4191C3.11722 12.0786 2.83203 11.7031 2.83203 11.309C2.83203 10.5705 3.83497 9.8982 5.47913 9.39296C6.23149 9.16198 7.11865 8.9655 8.10431 8.81398C9.31466 8.62905 10.676 8.51039 12.1225 8.4781C12.3915 8.47176 12.664 8.46887 12.9388 8.46887C13.3011 8.46887 13.6583 8.47408 14.0103 8.48501C15.3618 8.52478 16.6338 8.63942 17.7733 8.81398C18.903 8.98736 19.9024 9.21896 20.7187 9.49548C22.1722 9.98814 23.0455 10.6201 23.0455 11.3091Z" fill="#EBE5DD"/>
<path d="M22.2431 12.4199C22.0984 12.5155 21.936 12.6077 21.7568 12.6975C20.6208 13.2667 18.8085 13.7137 16.6263 13.9545C15.8411 14.0415 15.0086 14.1003 14.1428 14.1291C14.0823 14.1314 14.0218 14.1331 13.9613 14.1349C13.6249 14.1441 13.2839 14.1493 12.9382 14.1493C12.6819 14.1493 12.4279 14.1469 12.1761 14.1412C11.1507 14.1199 10.1679 14.056 9.25077 13.954C7.21896 13.7305 5.50796 13.3272 4.36501 12.8133C4.0856 12.6883 3.8408 12.5564 3.63281 12.4193C4.0839 12.1215 4.71125 11.8501 5.47856 11.6139C6.23092 11.3829 7.11808 11.1864 8.10374 11.0355C9.31409 10.85 10.6754 10.7319 12.1219 10.6991C12.3909 10.6927 12.6634 10.6898 12.9382 10.6898C13.3005 10.6898 13.6577 10.6956 14.0097 10.706C14.0558 10.7071 14.1025 10.7089 14.1485 10.7105C15.4482 10.7538 16.6723 10.8661 17.7727 11.0354C18.9024 11.2083 19.9019 11.4404 20.7182 11.7169C21.3403 11.9279 21.8559 12.1641 22.2431 12.4199Z" fill="#554431"/>
<path d="M22.2438 12.4198C22.0992 12.5154 21.9367 12.6076 21.7576 12.6975C20.6215 13.2667 18.8092 13.7137 16.627 13.9545C15.8418 14.0415 15.0094 14.1002 14.1436 14.1291C13.2835 14.0997 12.4568 14.0404 11.6779 13.9539C9.64612 13.7304 7.93512 13.3271 6.79217 12.8133C6.78934 12.8121 6.78657 12.8108 6.78385 12.8096C6.44695 12.6583 6.45103 12.1785 6.78793 12.0272C7.11565 11.88 7.49016 11.7418 7.90573 11.6139C8.65809 11.3829 9.54525 11.1864 10.5309 11.0355C11.6289 10.8672 12.8514 10.7544 14.1493 10.7106C15.4489 10.7538 16.6731 10.8661 17.7734 11.0355C18.9031 11.2083 19.9026 11.4404 20.7189 11.717C21.3411 11.9278 21.8567 12.164 22.2438 12.4198Z" fill="#6A563D"/>
<path d="M11.2281 2.04827C11.2281 1.80958 11.0347 1.61621 10.796 1.61621C10.5574 1.61621 10.364 1.80958 10.364 2.04827C10.364 2.31776 10.2867 2.42844 10.1587 2.61173C10.0064 2.82985 9.79785 3.12857 9.79785 3.66989C9.79785 4.2112 10.0065 4.50992 10.1587 4.7281C10.2867 4.91139 10.364 5.02207 10.364 5.29151C10.364 5.56095 10.2867 5.67162 10.1587 5.85486C10.0064 6.07298 9.79785 6.3717 9.79785 6.91296C9.79785 7.15159 9.99122 7.34501 10.2299 7.34501C10.4685 7.34501 10.662 7.15164 10.662 6.91296C10.662 6.64352 10.7392 6.53284 10.8672 6.34961C11.0195 6.13149 11.2281 5.83277 11.2281 5.29151C11.2281 4.75019 11.0195 4.45153 10.8672 4.2334C10.7392 4.05006 10.662 3.93938 10.662 3.66989C10.662 3.40039 10.7392 3.28966 10.8672 3.10637C11.0195 2.88825 11.2281 2.58958 11.2281 2.04827Z" fill="#EBE5DD"/>
<path d="M15.5135 3.66989C15.5135 3.40033 15.5908 3.28966 15.7188 3.10637C15.8711 2.88825 16.0796 2.58958 16.0796 2.04827C16.0796 1.80958 15.8863 1.61621 15.6476 1.61621C15.4089 1.61621 15.2155 1.80958 15.2155 2.04827C15.2155 2.31776 15.1383 2.42844 15.0103 2.61173C14.858 2.82985 14.6494 3.12857 14.6494 3.66989C14.6494 4.2112 14.858 4.50992 15.0103 4.72805C15.1383 4.91139 15.2155 5.02207 15.2155 5.29151C15.2155 5.56095 15.1383 5.67162 15.0103 5.85486C14.858 6.07298 14.6494 6.3717 14.6494 6.91296C14.6494 7.15164 14.8428 7.34501 15.0815 7.34501C15.3202 7.34501 15.5135 7.15164 15.5135 6.91296C15.5135 6.64346 15.5908 6.53284 15.7188 6.34961C15.8711 6.13149 16.0796 5.83277 16.0796 5.29151C16.0796 4.75019 15.8711 4.45153 15.7188 4.2334C15.5908 4.05011 15.5135 3.93944 15.5135 3.66989Z" fill="#EBE5DD"/>
<path d="M13.6539 0.432055C13.6539 0.193371 13.4604 0 13.2218 0C12.9832 0 12.7898 0.193371 12.7898 0.432055C12.7898 0.860031 12.687 1.05437 12.5568 1.3003C12.4084 1.58095 12.2236 1.93026 12.2236 2.57256C12.2236 3.21487 12.4084 3.56422 12.5568 3.84488C12.687 4.09093 12.7898 4.28526 12.7898 4.71312C12.7898 5.14099 12.687 5.33521 12.5568 5.5812C12.4084 5.86179 12.2236 6.2111 12.2236 6.8534C12.2236 7.09209 12.4171 7.28546 12.6557 7.28546C12.8943 7.28546 13.0877 7.09209 13.0877 6.8534C13.0877 6.42554 13.1905 6.23126 13.3206 5.98527C13.4691 5.70467 13.6539 5.35537 13.6539 4.71312C13.6539 4.07082 13.4691 3.72146 13.3206 3.4408C13.1905 3.19476 13.0877 3.00042 13.0877 2.57256C13.0877 2.1447 13.1905 1.95031 13.3206 1.70437C13.4691 1.42372 13.6539 1.07447 13.6539 0.432055Z" fill="#EBE5DD"/>
</svg>
