<svg width="27" height="27" viewBox="0 0 27 27" fill="none" xmlns="http://www.w3.org/2000/svg">
<path d="M25.8624 20.9164V21.2459C25.8624 21.8977 25.3347 22.4261 24.6836 22.4261H25.8204C26.4715 22.4261 26.9993 21.8977 26.9993 21.2459V21.144C26.9993 21.0183 26.8975 20.9164 26.7719 20.9164L25.8624 20.9164Z" fill="#D6C9AD"/>
<path d="M22.386 23.7041H4.61422C4.48855 23.7041 4.38672 23.6022 4.38672 23.4766V22.2529H22.6135V23.4766C22.6135 23.6022 22.5116 23.7041 22.386 23.7041Z" fill="#C4AE74"/>
<path d="M21.4668 22.2534V23.7034H22.3864C22.512 23.7034 22.6138 23.6015 22.6138 23.4758V22.2534H21.4668Z" fill="#AE8619"/>
<path d="M23.7018 16.5609H20.2835C19.9382 16.5609 19.6582 16.2804 19.6582 15.9344V10.119C19.6582 9.77305 19.9381 9.49255 20.2835 9.49255H25.0489C25.7126 9.49255 26.2507 10.0317 26.2507 10.6966V14.007C26.2507 15.4175 25.1095 16.5609 23.7018 16.5609ZM20.9087 15.3079H23.6377C24.3902 15.3079 25.0002 14.6967 25.0002 13.9427V10.7455H20.9087V15.3079Z" fill="#E36552"/>
<path d="M25.8201 22.4267H1.17993C0.528293 22.4267 0 21.8984 0 21.2467V21.1434C0 21.0177 0.10183 20.9159 0.227496 20.9159H26.7725C26.8982 20.9159 27 21.0177 27 21.1434V21.2467C27 21.8984 26.4717 22.4267 25.8201 22.4267Z" fill="#FABC16"/>
<path d="M17.312 21.1097H9.6895C7.47387 21.1097 5.67773 19.3135 5.67773 17.0979V7.46606H21.3238V17.0979C21.3238 19.3135 19.5277 21.1097 17.312 21.1097Z" fill="#E36552"/>
<path d="M20.1857 7.46606V16.9959C20.1857 19.2679 18.4341 21.1097 16.2734 21.1097H17.4103C19.571 21.1097 21.3225 19.2679 21.3225 16.9959V7.46606H20.1857Z" fill="#C95249"/>
<path d="M21.3052 11.6042H5.69531V13.3115H21.3052V11.6042Z" fill="#E89D41"/>
<path d="M21.304 11.6042H20.1855V13.3115H21.304V11.6042Z" fill="#E89D41"/>
<path d="M22.3928 6.12251C22.3928 7.37395 21.4623 8.38861 20.3146 8.38861C19.707 8.38861 19.1596 8.10406 18.7799 7.65049C18.3661 8.26453 17.7084 8.6612 16.9684 8.6612C16.4267 8.6612 15.9293 8.44894 15.5394 8.09441C15.0477 8.62196 14.3604 8.94918 13.5999 8.94918C12.8058 8.94918 12.0919 8.59238 11.5956 8.02385C11.1955 8.42052 10.6691 8.66125 10.0927 8.66125C9.33611 8.66125 8.66597 8.24697 8.25327 7.60957C7.87242 8.08703 7.31138 8.38867 6.685 8.38867C5.53734 8.38867 4.60742 7.37401 4.60742 6.12257C4.60742 4.87113 5.53734 3.85646 6.685 3.85646C7.31138 3.85646 7.87242 4.15811 8.25327 4.63556C8.66597 3.99816 9.33611 3.58388 10.0927 3.58388C10.6691 3.58388 11.1954 3.82461 11.5956 4.22123C12.0919 3.6527 12.8058 3.2959 13.5999 3.2959C14.3604 3.2959 15.0477 3.62312 15.5394 4.15067C15.9293 3.79614 16.4267 3.58388 16.9684 3.58388C17.7084 3.58388 18.3661 3.98055 18.7799 4.59459C19.1596 4.14102 19.707 3.85646 20.3146 3.85646C21.4623 3.85641 22.3928 4.87107 22.3928 6.12251Z" fill="#FABC16"/>
<path d="M20.3149 3.85632C20.1177 3.85632 19.9269 3.88675 19.7461 3.94275C20.6175 4.21233 21.2562 5.08588 21.2562 6.12242C21.2562 7.15897 20.6175 8.03252 19.7461 8.30209C19.927 8.3581 20.1177 8.38853 20.3149 8.38853C21.4625 8.38853 22.393 7.37386 22.393 6.12242C22.393 4.87099 21.4625 3.85632 20.3149 3.85632Z" fill="#AE8619"/>
</svg>
