<svg width="46" height="34" viewBox="0 0 46 34" fill="#0A4F94" xmlns="http://www.w3.org/2000/svg">
<path d="M36.0101 33.5C32.6367 33.5 30.1451 32.5033 28.5351 30.51C26.9251 28.5166 26.1201 26.025 26.1201 23.035C26.1201 20.4283 26.6184 17.745 27.6151 14.985C28.6884 12.225 30.2984 9.57998 32.4451 7.04998C34.6684 4.51999 37.4667 2.37332 40.8401 0.609985L44.7501 5.43998C42.2967 7.04998 40.1884 9.00498 38.4251 11.305C36.7384 13.5283 35.7417 15.7133 35.4351 17.86H37.3901C39.8434 17.86 41.7601 18.435 43.1401 19.585C44.5967 20.735 45.3251 22.5367 45.3251 24.99C45.3251 27.52 44.4817 29.59 42.7951 31.2C41.1851 32.7333 38.9234 33.5 36.0101 33.5ZM10.5951 33.5C7.22175 33.5 4.73008 32.5033 3.12008 30.51C1.51008 28.5166 0.705078 26.025 0.705078 23.035C0.705078 20.4283 1.20341 17.745 2.20008 14.985C3.27341 12.225 4.88341 9.57998 7.03008 7.04998C9.25341 4.51999 12.0517 2.37332 15.4251 0.609985L19.3351 5.43998C16.8817 7.04998 14.7734 9.00498 13.0101 11.305C11.3234 13.5283 10.3267 15.7133 10.0201 17.86H11.9751C14.4284 17.86 16.3451 18.435 17.7251 19.585C19.1817 20.735 19.9101 22.5367 19.9101 24.99C19.9101 27.52 19.0667 29.59 17.3801 31.2C15.7701 32.7333 13.5084 33.5 10.5951 33.5Z"/>
</svg>
