<svg width="14" height="16" viewBox="0 0 14 16" fill="none" xmlns="http://www.w3.org/2000/svg">
<path d="M13.7871 13.9613L10.3359 10.2491C11.2233 9.15818 11.7095 7.78557 11.7095 6.35662C11.7095 3.01802 9.08299 0.301758 5.85474 0.301758C2.62649 0.301758 0 3.01802 0 6.35662C0 9.69522 2.62649 12.4115 5.85474 12.4115C7.06667 12.4115 8.22158 12.0335 9.20899 11.3158L12.6864 15.0561C12.8318 15.2123 13.0273 15.2983 13.2368 15.2983C13.4351 15.2983 13.6232 15.2202 13.766 15.078C14.0694 14.776 14.0791 14.2753 13.7871 13.9613ZM5.85474 1.88129C8.24092 1.88129 10.1821 3.88887 10.1821 6.35662C10.1821 8.82437 8.24092 10.832 5.85474 10.832C3.46855 10.832 1.52732 8.82437 1.52732 6.35662C1.52732 3.88887 3.46855 1.88129 5.85474 1.88129Z" fill="white"/>
</svg>
