<svg width="28" height="28" viewBox="0 0 28 28" fill="none" xmlns="http://www.w3.org/2000/svg">
<g clip-path="url(#clip0)">
<path d="M22.7898 23.0203H3.62321C2.05182 23.0203 0.629508 22.0711 0 20.6022H26.413C25.7835 22.0711 24.3612 23.0203 22.7898 23.0203Z" fill="#E0E0E0"/>
<path d="M24.3752 20.6022C23.7457 22.0711 22.3233 23.0203 20.752 23.0203H22.7893C24.3607 23.0203 25.783 22.0711 26.4125 20.6022H24.3752Z" fill="#CCCCCC"/>
<path d="M27.3396 7.82847C26.379 6.50022 24.7088 6.52915 23.226 6.92153C23.18 7.61765 23.1099 8.2821 23.0189 8.91565C24.971 8.21079 25.6287 8.60667 25.8467 8.90816C26.8376 10.2784 25.3534 14.0351 22.2084 16.4661C21.5331 16.9881 20.8981 17.1609 20.2673 16.9945C20.2103 16.9795 20.1536 16.9613 20.0972 16.9413C19.7109 17.5185 19.3211 18.0184 18.9473 18.4464C19.2252 18.5892 19.5072 18.6991 19.7931 18.7748C20.0604 18.8456 20.3752 18.8969 20.7269 18.8969C21.4666 18.8968 22.3693 18.6704 23.3352 17.9238C25.0288 16.6147 26.4704 14.8107 27.2903 12.9747C28.2187 10.8957 28.2362 9.06812 27.3396 7.82847Z" fill="#C6C6C6"/>
<path d="M23.2883 5.26585C23.1805 16.9564 16.4672 20.602 16.4672 20.602H7.30741C7.30741 20.602 0.594189 16.9564 0.486345 5.26585C0.48465 5.10835 0.611087 4.97961 0.768587 4.97961H23.006C23.1636 4.97967 23.29 5.10835 23.2883 5.26585Z" fill="#E0E0E0"/>
<path d="M21.733 16.7787C21.2313 17.0504 20.7481 17.1213 20.2673 16.9944C20.2103 16.9794 20.1536 16.9612 20.0972 16.9412C19.7109 17.5184 19.3211 18.0183 18.9473 18.4463C19.2252 18.5891 19.5072 18.699 19.7931 18.7747C19.8934 18.8013 20.0003 18.8251 20.1133 18.8445C20.6264 18.3018 21.1853 17.6199 21.733 16.7787Z" fill="#BABABA"/>
<path d="M23.0195 8.91571C23.686 8.67503 24.2014 8.56286 24.6001 8.53125C24.6754 7.94243 24.7327 7.32775 24.7696 6.68665C24.2572 6.69687 23.7311 6.78809 23.2266 6.92158C23.1806 7.6177 23.1105 8.2821 23.0195 8.91571Z" fill="#BABABA"/>
<path d="M21.9591 4.97986C21.9591 16.8972 15.1367 20.6022 15.1367 20.6022H16.4681C16.4681 20.6022 23.1811 16.9566 23.2892 5.26598C23.2906 5.10859 23.1643 4.97986 23.007 4.97986H21.9591Z" fill="#CCCCCC"/>
<path d="M0.755859 8.90479C2.01947 17.7281 7.30862 20.6022 7.30862 20.6022H11.8885H11.8889H16.4688C16.4688 20.6022 21.7579 17.7281 23.0215 8.90479H0.755859Z" fill="#FFAA5C"/>
<path d="M21.6895 8.90479C20.4259 17.7278 15.1369 20.602 15.1367 20.6022H16.4681C16.4681 20.6022 21.7573 17.7281 23.0209 8.90479H21.6895Z" fill="#FF9838"/>
<path d="M9.6124 4.97961V12.3285C9.6124 12.5621 9.42275 12.7519 9.18901 12.7519C8.95528 12.7519 8.76562 12.5622 8.76562 12.3285V4.97961H9.6124Z" fill="#994E37"/>
<path d="M10.1931 17.5131H8.15921C7.53413 17.5131 7.02734 17.0064 7.02734 16.3812V13.4642C7.02734 13.3867 7.05917 13.3126 7.11539 13.2594L8.98193 11.4897C9.09081 11.3864 9.26144 11.3864 9.37032 11.4897L11.2369 13.2594C11.2931 13.3127 11.3249 13.3867 11.3249 13.4642V16.3812C11.325 17.0064 10.8182 17.5131 10.1931 17.5131Z" fill="#FFE55A"/>
<path d="M8.98217 11.4897L8.39844 12.0431L10.2182 13.7685C10.2746 13.8219 10.3065 13.8962 10.3065 13.9738V16.8906C10.3065 17.1207 10.2374 17.3344 10.1195 17.5131H10.1933C10.8184 17.5131 11.3252 17.0064 11.3252 16.3812V13.4642C11.3252 13.3867 11.2934 13.3126 11.2372 13.2594L9.37062 11.4897C9.26173 11.3864 9.09105 11.3864 8.98217 11.4897Z" fill="#FFD91D"/>
</g>
<defs>
<clipPath id="clip0">
<rect width="28" height="28" fill="white"/>
</clipPath>
</defs>
</svg>
