<svg width="90" height="96" viewBox="0 0 90 96" fill="none" xmlns="http://www.w3.org/2000/svg">
<path d="M23.9098 56.8672C23.9098 56.8672 20.226 55.0779 13.8057 57.4986C13.8057 57.4986 17.3842 53.9201 19.805 53.4991C19.805 53.4991 16.016 51.1836 14.753 47.7103C14.753 47.7103 17.9105 51.1836 19.5945 51.9203C19.5945 51.9203 16.1212 46.763 15.7002 43.0792C15.7002 43.0792 17.4895 47.2893 20.4365 49.7101C20.4365 49.7101 16.437 38.6587 27.5936 24.0288C27.5936 24.0288 25.0676 32.3436 28.1198 36.7642C28.1198 36.7642 30.2249 20.5555 31.2774 18.6609C31.2774 18.6609 44.7496 4.13629 56.2219 1.61026C56.2219 1.61026 53.3801 5.71504 53.8011 7.60956C53.8011 7.60956 58.0112 1.50501 60.011 0.557746C60.011 0.557746 60.9582 0.347237 61.274 0.452488C61.274 0.452488 58.8532 3.92576 59.0637 4.34676C59.0637 4.34676 62.7475 1.29448 63.6948 0.136715C63.6948 0.136715 77.4827 -1.65254 88.4288 7.71482C88.4288 7.71482 93.4809 12.2406 76.2197 16.2402C76.2197 16.2402 72.5359 12.2406 69.6941 12.2406C69.6941 12.2406 72.1149 14.1352 73.0621 16.3454C73.0621 16.3454 65.5893 20.6607 64.3263 22.029C64.3263 22.029 61.8002 19.1872 60.1162 19.924C58.4322 20.6607 53.0644 22.2395 45.8021 32.2383C45.8021 32.2383 50.1174 29.0808 50.9594 28.7651L48.4334 33.2909C48.4334 33.2909 43.3813 35.9221 41.8025 36.6589C41.8025 36.6589 45.9073 36.3432 46.9598 35.7117C46.9598 35.7117 42.7498 46.763 30.3301 49.4996C30.3301 49.4996 38.3292 51.0783 40.9605 48.7628C40.9605 48.7628 36.961 53.6044 31.3826 56.0251C31.3826 56.0251 30.9616 59.3932 29.0671 61.8139C29.1723 61.8139 27.8041 56.8672 23.9098 56.8672Z" fill="#D7D7E7"/>
<path d="M71.9047 6.34656C71.9047 6.34656 71.5889 6.45179 70.8522 6.55704C70.2207 6.76754 69.1681 7.08329 68.0104 7.5043C66.8526 7.9253 65.3791 8.66208 63.8003 9.39884C62.2215 10.2408 60.5375 11.2934 58.643 12.4511C56.8537 13.7141 54.9592 15.0824 53.0647 16.7664C52.5385 17.1874 52.1175 17.6084 51.5912 18.0294C51.3807 18.2399 51.0649 18.4504 50.8544 18.6609C50.6439 18.8714 50.4334 19.0819 50.1177 19.2924C49.5914 19.7135 49.1704 20.2397 48.6441 20.6607C48.2231 21.0817 47.6969 21.608 47.1706 22.1342C46.2234 23.0815 45.2761 24.134 44.3288 25.1865C43.8026 25.7128 43.3816 26.239 42.9606 26.7653C42.5396 27.2915 42.0133 27.8178 41.5923 28.3441C41.1713 28.8703 40.645 29.5018 40.224 30.0281C39.803 30.5543 39.2768 31.1858 38.8558 31.7121C38.4348 32.3436 38.0138 32.8699 37.4875 33.5014L36.856 34.3434L36.2245 35.2906C34.5405 37.6062 32.8565 40.0269 31.2777 42.4477C30.8567 43.0792 30.5409 43.7107 30.1199 44.237C29.6989 44.8685 29.3832 45.3947 28.9622 46.0263C28.2254 47.2893 27.4887 48.447 26.8572 49.6048C25.4889 52.0256 24.2259 54.3411 23.0681 56.5514C22.4366 57.7091 21.9103 58.7617 21.3841 59.8142C20.8578 60.8667 20.3316 61.9192 19.8053 62.8665C19.2791 63.8137 18.8581 64.761 18.4371 65.7083C18.0161 66.6555 17.595 67.4975 17.174 68.2343C16.753 69.0763 16.4373 69.8131 16.1215 70.5498C15.8058 71.2866 15.49 71.9181 15.1743 72.4443C14.648 73.6021 14.227 74.5494 13.9112 75.1809C13.5955 75.8124 13.4902 76.1281 13.4902 76.1281C13.4902 76.1281 13.5955 75.8124 13.806 75.0756C14.0165 74.4441 14.3323 73.4968 14.7533 72.2338C14.9638 71.6023 15.1742 70.9708 15.49 70.234C15.7005 69.4973 16.0163 68.7605 16.332 67.9185C16.9635 66.2345 17.7003 64.34 18.5423 62.2349C18.9633 61.1824 19.3843 60.1299 19.9106 59.0774C20.3316 58.0249 20.9631 56.8671 21.4893 55.7094C22.5418 53.3939 23.8049 50.9731 25.0679 48.5523C25.6994 47.2893 26.4361 46.1315 27.1729 44.8685C27.9097 43.6055 28.6464 42.3425 29.3832 41.0795C30.9619 38.5534 32.5407 36.1327 34.33 33.7119L34.9615 32.7646L35.593 31.9226C36.014 31.2911 36.5402 30.7648 36.9612 30.1333C37.3823 29.5018 37.9085 28.9756 38.3295 28.4493C38.7505 27.9231 39.2768 27.2915 39.6978 26.7653C40.645 25.6075 41.5923 24.555 42.6448 23.5025C43.6974 22.45 44.6446 21.3975 45.6971 20.4502C46.2234 19.924 46.7496 19.503 47.1706 18.9767C47.6969 18.5557 48.2231 18.0294 48.7494 17.6084C48.9599 17.3979 49.2757 17.1874 49.4862 16.9769C49.6967 16.7664 50.0124 16.5559 50.2229 16.3454C50.7492 15.9244 51.2754 15.5034 51.8017 15.1877C53.9067 13.6089 55.9065 12.3459 57.801 11.1881C59.6955 10.0303 61.59 9.18834 63.2741 8.45158C64.9581 7.71482 66.4316 7.29379 67.6946 6.97804C68.9576 6.66229 70.0101 6.45181 70.6416 6.34656C71.4837 6.34656 71.9047 6.34656 71.9047 6.34656Z" fill="#363D53"/>
<path d="M26.3315 93.705C25.279 87.1794 17.8061 84.5481 17.8061 84.5481C18.4376 83.6009 18.4376 80.7591 18.4376 80.7591H17.7009V80.1276H13.1751H8.64926V80.7591H7.9125C7.9125 80.7591 8.01776 83.6009 8.54402 84.5481C8.54402 84.5481 1.07117 87.1794 0.0186588 93.705C0.0186588 93.705 -0.40234 95.9153 2.7552 95.81H13.1751H23.5949C26.6472 95.81 26.3315 93.705 26.3315 93.705Z" fill="#D7D7E7"/>
</svg>
